<svg width="820" height="200" viewBox="0 0 410 100" xmlns="http://www.w3.org/2000/svg">
  <!-- Icon -->
  <g transform="translate(0,0)">
    <g fill="#3B82F6">
      <circle cx="50" cy="50" r="38" fill="none" stroke="#3B82F6" stroke-width="6.5"/>
      <rect x="47" y="6"  width="6" height="11" rx="1.5"/>
      <rect x="47" y="83" width="6" height="11" rx="1.5"/>
      <rect x="6"  y="47" width="11" height="6" rx="1.5"/>
      <rect x="83" y="47" width="11" height="6" rx="1.5"/>
      <rect x="17.5" y="17.5" width="6" height="11" rx="1.5" transform="rotate(-45 20.5 23)"/>
      <rect x="76.5" y="17.5" width="6" height="11" rx="1.5" transform="rotate(45 79.5 23)"/>
      <rect x="17.5" y="71.5" width="6" height="11" rx="1.5" transform="rotate(45 20.5 77)"/>
      <rect x="76.5" y="71.5" width="6" height="11" rx="1.5" transform="rotate(-45 79.5 77)"/>
    </g>

    <line x1="50" y1="30" x2="50" y2="35" stroke="#06B6D4" stroke-width="2" stroke-linecap="round"/>
    <line x1="50" y1="30" x2="59" y2="25" stroke="#06B6D4" stroke-width="1.6" stroke-linecap="round" opacity="0.8"/>
    <circle cx="50" cy="27.5" r="3.2" fill="#06B6D4"/>
    <circle cx="60" cy="23.5" r="2" fill="#06B6D4" opacity="0.8"/>

    <path d="M30,68
             L30,50
             Q30,40 42,38
             L44,34
             Q50,30 56,34
             L58,38
             Q70,40 70,50
             L70,68
             Q70,71.5 66.5,71.5
             L33.5,71.5
             Q30,71.5 30,68
             Z"
          fill="#F9FAFB"/>

    <ellipse cx="38" cy="53" rx="5.4" ry="4" fill="#06B6D4"/>
    <ellipse cx="62" cy="53" rx="5.4" ry="4" fill="#06B6D4"/>

    <g stroke="#1F2937" stroke-width="1.8" stroke-linecap="round" opacity="0.85">
      <line x1="41" y1="61" x2="59" y2="61"/>
      <line x1="41" y1="65" x2="59" y2="65"/>
      <line x1="43" y1="69" x2="57" y2="69"/>
    </g>
  </g>

  <!-- Wordmark -->
  <text x="118" y="66"
        font-family="'Poppins','Manrope','Inter',sans-serif"
        font-weight="700"
        font-size="46"
        letter-spacing="0.5"
        fill="#FFFFFF">Mekanik</text>
</svg>
